<?xml version="1.0" encoding="UTF-8" standalone="no"?>
<svg
   xmlns:dc="http://purl.org/dc/elements/1.1/"
   xmlns:cc="http://creativecommons.org/ns#"
   xmlns:rdf="http://www.w3.org/1999/02/22-rdf-syntax-ns#"
   xmlns:svg="http://www.w3.org/2000/svg"
   xmlns="http://www.w3.org/2000/svg"
   version="1.1"
   id="svg4402"
   viewBox="0 0 100 100"
   height="100"
   width="100">
  <defs
     id="defs4404" />
  <metadata
     id="metadata4407">
    <rdf:RDF>
      <cc:Work
         rdf:about="">
        <dc:format>image/svg+xml</dc:format>
        <dc:type
           rdf:resource="http://purl.org/dc/dcmitype/StillImage" />
        <dc:title></dc:title>
      </cc:Work>
    </rdf:RDF>
  </metadata>
  <g
     transform="translate(0,-952.36216)"
     id="layer1">
    <path
       d="m 57.612719,992.7638 c 4.159933,-2.22427 5.669486,-5.51983 5.586767,-12.19683 -0.08417,-6.7906 -2.129942,-12.68557 -5.952168,-17.15092 -3.309105,-3.86594 -6.176803,-5.05937 -11.035369,-4.59251 -5.24779,0.50423 -8.628911,3.75451 -9.806502,9.42689 -1.805296,8.69609 2.67366,20.38295 9.378639,24.47147 3.045107,1.85675 8.398957,1.87574 11.828633,0.0417 z m 2.082718,51.6526 c 6.813698,-2.0235 10.754681,-6.73 10.754681,-12.8438 0,-3.7552 -1.5182,-6.3307 -6.31775,-10.7172 -6.0081,-5.4911 -8.063305,-6.28 -14.467705,-5.5534 -7.490322,0.8496 -11.01354,1.9568 -14.680427,4.613 -8.701532,6.3034 -6.530049,18.5361 4.098741,23.0897 6.296103,2.6974 14.411349,3.2532 20.61246,1.4117 z m -23.719848,5.3704 c -14.494491,-3.3167 -20.980097,-13.7083 -15.392,-24.662 3.663803,-7.1815 13.093235,-11.89 26.538869,-13.2517 l 5.016082,-0.508 -1.943342,-3.7458 c -1.708065,-3.2921 -1.847683,-4.1044 -1.15298,-6.7069 l 0.790361,-2.96121 -4.023762,0 c -8.860136,0 -17.971089,-6.24501 -19.97659,-13.69276 -2.094449,-7.77823 0.501511,-17.08842 6.200384,-22.23698 7.107567,-6.42127 13.405787,-7.88686 33.882499,-7.88463 l 15.494636,0 -3.779174,2.24175 c -2.89787,1.71895 -4.713047,2.24471 -7.783731,2.25462 l -4.004473,0.0127 2.786854,2.83438 c 4.068204,4.13756 5.883598,8.65697 5.849616,14.56246 -0.03628,6.33165 -1.270528,8.7114 -8.277539,15.96203 -7.411352,7.66907 -7.447874,8.76484 -0.492441,14.77674 10.715402,9.2619 13.010781,12.7802 13.038898,19.9862 0.0387,9.8748 -6.779801,17.7915 -18.775805,21.8005 -6.246763,2.0877 -17.661016,2.6664 -23.996362,1.2167 z"
       style="fill:#767676;fill-opacity:1"
       id="path4272" />
  </g>
</svg>
