<?xml version="1.0" encoding="UTF-8" standalone="no"?>
<svg
   xmlns:dc="http://purl.org/dc/elements/1.1/"
   xmlns:cc="http://creativecommons.org/ns#"
   xmlns:rdf="http://www.w3.org/1999/02/22-rdf-syntax-ns#"
   xmlns:svg="http://www.w3.org/2000/svg"
   xmlns="http://www.w3.org/2000/svg"
   version="1.1"
   id="svg4402"
   viewBox="0 0 100 100"
   height="100"
   width="100">
  <defs
     id="defs4404" />
  <metadata
     id="metadata4407">
    <rdf:RDF>
      <cc:Work
         rdf:about="">
        <dc:format>image/svg+xml</dc:format>
        <dc:type
           rdf:resource="http://purl.org/dc/dcmitype/StillImage" />
        <dc:title></dc:title>
      </cc:Work>
    </rdf:RDF>
  </metadata>
  <g
     transform="translate(0,-952.36216)"
     id="layer1">
    <path
       id="path4210"
       d="m 33.895752,1032.7578 c -8.53521,-1.3261 -17.420314,-5.6834 -23.656298,-11.6011 -2.4114477,-2.2883 -4.0689925,-4.0487 -3.6834322,-3.912 0.3855603,0.1367 2.5913579,1.1591 4.9016912,2.2719 5.887269,2.8357 12.846366,2.8598 19.052457,0.066 2.379031,-1.071 5.036565,-2.7041 5.905604,-3.6291 l 1.579984,-1.6819 -1.874748,0 c -4.078413,0 -5.718573,-4.5927 -2.312913,-6.4767 1.349993,-0.7468 1.166102,-0.8724 -1.961112,-1.339 -2.480709,-0.3701 -4.05015,-1.1143 -5.582913,-2.6471 -2.083484,-2.0835 -2.100757,-2.1558 -0.755306,-3.1731 0.757268,-0.5725 2.165475,-1.07325 3.129347,-1.11265 1.515491,-0.062 1.367772,-0.24321 -1.092187,-1.33841 -3.218012,-1.43285 -6.619019,-5.08117 -6.619019,-7.10039 0,-1.04922 0.505351,-1.35319 2.278311,-1.3704 l 2.278311,-0.0224 -1.923707,-1.69326 c -2.581095,-2.27192 -5.43699,-6.56569 -5.43699,-8.17456 0,-0.71728 0.15142,-1.30417 0.336433,-1.30417 0.81492,0 14.876064,5.83427 18.808443,7.80402 2.386605,1.19543 5.697264,3.27622 7.356996,4.62386 1.659788,1.3477 3.23708,2.23115 3.505094,1.96319 0.268069,-0.2679 0.960564,-1.64386 1.538876,-3.05773 3.311444,-8.09536 10.903478,-18.70099 11.730231,-16.38651 0.218942,0.61303 0.59194,0.68274 1.154494,0.2158 0.457126,-0.37933 1.724287,-1.02932 2.81597,-1.44432 1.694166,-0.64415 1.923315,-0.59441 1.564898,0.33974 -0.349612,0.91099 -0.01065,1.0176 2.023028,0.63608 3.679507,-0.69031 3.265121,1.40147 -0.536363,2.70744 l -2.97933,1.02349 2.103056,0.46576 c 6.488069,1.43692 12.408202,6.68693 14.871133,13.18773 1.358967,3.58703 1.486104,3.70071 4.376432,3.91337 1.637243,0.12052 3.894019,-0.10067 5.015032,-0.4915 1.91866,-0.66883 1.993249,-0.62637 1.270863,0.72345 -0.422125,0.78868 -2.396587,2.15763 -4.387704,3.04211 l -3.620286,1.60821 3.505094,0.4732 c 1.927802,0.26025 3.97831,0.54795 4.556622,0.63915 1.580938,0.2496 -3.164062,2.5633 -6.399572,3.1205 -2.604201,0.4485 -2.895376,0.746 -4.431729,4.528 -5.781555,14.2322 -21.384892,24.032 -39.291547,24.6772 -3.855603,0.139 -7.956563,0.1056 -9.113244,-0.074 z"
       style="fill:#767676;fill-opacity:1" />
  </g>
</svg>
