<?xml version="1.0" encoding="UTF-8" standalone="no"?>
<svg
   xmlns:dc="http://purl.org/dc/elements/1.1/"
   xmlns:cc="http://creativecommons.org/ns#"
   xmlns:rdf="http://www.w3.org/1999/02/22-rdf-syntax-ns#"
   xmlns:svg="http://www.w3.org/2000/svg"
   xmlns="http://www.w3.org/2000/svg"
   version="1.1"
   id="svg4402"
   viewBox="0 0 100 100"
   height="100"
   width="100">
  <defs
     id="defs4404" />
  <metadata
     id="metadata4407">
    <rdf:RDF>
      <cc:Work
         rdf:about="">
        <dc:format>image/svg+xml</dc:format>
        <dc:type
           rdf:resource="http://purl.org/dc/dcmitype/StillImage" />
        <dc:title></dc:title>
      </cc:Work>
    </rdf:RDF>
  </metadata>
  <g
     transform="translate(0,-952.36216)"
     id="layer1">
    <path
       id="path4206"
       d="m 10.824966,1050.5198 c -1.7063242,-0.7916 -4.2190243,-2.6163 -5.5837729,-4.0547 -4.94324914,-5.2102 -4.88858478,-4.7133 -4.8697845,-44.2792 0.0192384,-40.04385 -0.0751407,-39.28237 5.5113622,-44.58271 5.2101802,-4.94317 4.7132372,-4.88848 44.2790922,-4.86974 40.043861,0.0191 39.282402,-0.0755 44.582672,5.51136 4.938789,5.20555 4.886785,4.73628 4.886785,44.11009 0,39.3739 0.05208,38.9045 -4.886785,44.1102 -4.387482,4.6243 -7.373116,5.4921 -18.962955,5.5113 l -10.276721,0.017 0,-18.6144 0,-18.6145 8.143822,0 8.143812,0 0,-8.5315 0,-8.53167 -8.143812,0 -8.143822,0 0,-4.14563 c 0,-5.934 1.109424,-6.7128 9.562179,-6.7128 l 6.725455,0 0,-8.14381 0,-8.1438 -8.337717,0.0171 c -9.925956,0.0202 -12.935039,1.10042 -17.786893,6.38495 -3.77587,4.11249 -5.675047,9.5333 -5.675047,16.19856 l 0,4.48034 -6.010903,0.22653 -6.010914,0.22643 0,8.14388 0,8.1438 6.010914,0.2265 6.010903,0.2265 0,18.5818 0,18.5818 -18.032731,-0.017 c -15.91193,-0.015 -18.397577,-0.1863 -21.135139,-1.4565 z"
       style="fill:#767676;fill-opacity:1" />
  </g>
</svg>
