<?xml version="1.0" encoding="UTF-8" standalone="no"?>
<svg
   xmlns:dc="http://purl.org/dc/elements/1.1/"
   xmlns:cc="http://creativecommons.org/ns#"
   xmlns:rdf="http://www.w3.org/1999/02/22-rdf-syntax-ns#"
   xmlns:svg="http://www.w3.org/2000/svg"
   xmlns="http://www.w3.org/2000/svg"
   version="1.1"
   id="svg4402"
   viewBox="0 0 100 100"
   height="100"
   width="100">
  <defs
     id="defs4404" />
  <metadata
     id="metadata4407">
    <rdf:RDF>
      <cc:Work
         rdf:about="">
        <dc:format>image/svg+xml</dc:format>
        <dc:type
           rdf:resource="http://purl.org/dc/dcmitype/StillImage" />
        <dc:title></dc:title>
      </cc:Work>
    </rdf:RDF>
  </metadata>
  <g
     transform="translate(0,-952.36216)"
     id="layer1">
    <path
       d="m 29.278731,982.20293 c 2.088165,-2.08811 2.306143,-2.7241 1.920261,-5.60126 -0.59298,-4.42107 -3.31437,-6.72549 -7.942296,-6.72549 -4.263311,0 -6.931782,1.65365 -8.027855,4.97488 -1.754768,5.31703 1.816279,9.66194 7.964304,9.69025 3.13948,0.0142 4.10301,-0.35577 6.085586,-2.33838 z m 24.571945,39.16557 c 0,-13.0583 0.124444,-14.3499 1.557561,-16.1719 2.22182,-2.8245 6.36922,-4.0626 9.401497,-2.8066 3.876625,1.6058 4.496002,4.3089 4.496002,19.6222 l 0,13.548 7.824837,0 7.824901,0 -0.393362,-15.6482 c -0.453019,-18.027 -1.21786,-21.29679 -5.989272,-25.60757 -6.599312,-5.96201 -18.080812,-5.61656 -23.044177,0.69337 l -1.677987,2.13317 0,-3.22318 0,-3.22319 -7.534344,0.22113 -7.534344,0.2212 -0.204996,22.21667 -0.205119,22.2166 7.739463,0 7.73934,0 0,-14.1917 z m -23.182597,-8.2461 0,-22.4378 -7.534344,0.22113 -7.534343,0.2212 -0.204996,22.21667 -0.20512,22.2166 7.739463,0 7.73934,0 0,-22.4378 z m -26.1885445,37.5872 c -3.93646669,-2.1818 -3.89207975,-1.637 -3.92144437,-48.1482 -0.0204007,-32.07756 0.21395991,-43.96073 0.89583737,-45.45725 1.9443089,-4.26742 1.4982139,-4.22854 48.5329825,-4.22854 47.034765,0 46.58867,-0.0389 48.532979,4.22854 0.680641,1.49387 0.923224,13.39593 0.923224,45.30245 0,46.9535 0.03833,46.5141 -4.228567,48.4582 -3.086748,1.4065 -88.180042,1.261 -90.7350115,-0.1552 z"
       style="fill:#767676;fill-opacity:1"
       id="path4178" />
  </g>
</svg>
